<svg xmlns="http://www.w3.org/2000/svg" xmlns:xlink="http://www.w3.org/1999/xlink" viewBox="0 0 2746.42 2792.81"><defs><style>.a,.g{opacity:0.3;}.a{fill:url(#a);}.b{fill:#7febff;}.c,.f,.l,.m{fill:#fff;}.c{opacity:0.47;}.d{fill:#001094;}.e{fill:#0ea5e9;}.h,.i{fill:#5cf;}.i{opacity:0.56;}.j{fill:url(#b);}.k{fill:url(#c);}.l{opacity:0.85;}.m{opacity:0.94;}.n{fill:url(#d);}.o{fill:url(#e);}.p{fill:url(#f);}.q{fill:url(#g);}.r{fill:url(#h);}.s{fill:url(#i);}.t{fill:url(#j);}.u{fill:url(#k);}.v{fill:url(#l);}.w{fill:url(#m);}.x{fill:url(#n);}.y{fill:url(#o);}.z{fill:url(#p);}.aa{fill:url(#q);}.ab{fill:url(#r);}.ac{fill:url(#s);}.ad{fill:url(#t);}.ae{fill:url(#u);}.af{fill:url(#v);}.ag{fill:url(#w);}</style><linearGradient id="a" x1="3103.52" y1="3607.2" x2="648.29" y2="557.96" gradientUnits="userSpaceOnUse"><stop offset="0" stop-color="#b37cff"/><stop offset="1" stop-color="#fff"/></linearGradient><linearGradient id="b" x1="1268.04" y1="1783.39" x2="3922.98" y2="-2659.72" gradientUnits="userSpaceOnUse"><stop offset="0" stop-color="#fdf53f"/><stop offset="1" stop-color="#d93c65"/></linearGradient><linearGradient id="c" x1="1533.33" y1="1903.86" x2="4139.28" y2="-2457.25" xlink:href="#b"/><linearGradient id="d" x1="7305.99" y1="2627.63" x2="6688.02" y2="3299.81" gradientTransform="translate(-6484.35)" gradientUnits="userSpaceOnUse"><stop offset="0" stop-color="#2b3582"/><stop offset="1" stop-color="#150e42"/></linearGradient><linearGradient id="e" x1="7105.41" y1="2677.55" x2="7160.3" y2="2677.55" gradientTransform="translate(-6484.35)" gradientUnits="userSpaceOnUse"><stop offset="0" stop-color="#f9b776"/><stop offset="1" stop-color="#f47960"/></linearGradient><linearGradient id="f" x1="7354.65" y1="1867.46" x2="6828.81" y2="2580.16" xlink:href="#d"/><linearGradient id="g" x1="7167.36" y1="2500.17" x2="6549.38" y2="3172.36" xlink:href="#d"/><linearGradient id="h" x1="6907.58" y1="2674.74" x2="6954.97" y2="2674.74" xlink:href="#e"/><linearGradient id="i" x1="7260.94" y1="1798.31" x2="6735.1" y2="2511.02" xlink:href="#d"/><linearGradient id="j" x1="590.65" y1="1481.19" x2="1428.97" y2="36.86" xlink:href="#b"/><linearGradient id="k" x1="-3548.88" y1="918.76" x2="-3452.03" y2="1195.47" gradientTransform="matrix(-1, 0, 0, 1, -2464.75, 0)" xlink:href="#e"/><linearGradient id="l" x1="-3631.66" y1="947.73" x2="-3534.81" y2="1224.45" gradientTransform="matrix(-1, 0, 0, 1, -2464.75, 0)" xlink:href="#e"/><linearGradient id="m" x1="-3557.26" y1="1124.52" x2="-3630.21" y2="977.36" gradientTransform="matrix(-1, 0, 0, 1, -2464.75, 0)" xlink:href="#e"/><linearGradient id="n" x1="416.28" y1="1379.98" x2="1254.6" y2="-64.35" xlink:href="#b"/><linearGradient id="o" x1="6717.64" y1="1642.72" x2="7072.53" y2="1642.72" xlink:href="#e"/><linearGradient id="p" x1="858.45" y1="1217.77" x2="675.63" y2="1716.36" gradientTransform="matrix(1, 0, 0, 1, 0, 0)" xlink:href="#d"/><linearGradient id="q" x1="4505.13" y1="8657.72" x2="4327.85" y2="9123.07" gradientTransform="translate(-6484.35)" gradientUnits="userSpaceOnUse"><stop offset="0" stop-color="#53d8ff"/><stop offset="1" stop-color="#3840f7"/></linearGradient><linearGradient id="r" x1="4509.91" y1="8659.54" x2="4332.63" y2="9124.89" xlink:href="#q"/><linearGradient id="s" x1="7046.18" y1="1605.51" x2="7156.75" y2="1605.51" xlink:href="#e"/><linearGradient id="t" x1="6990.15" y1="1263.32" x2="7130.46" y2="1263.32" xlink:href="#e"/><linearGradient id="u" x1="-225.8" y1="3032.8" x2="-278.23" y2="2859.86" gradientTransform="matrix(0.75, -0.67, 0.67, 0.75, -1171.61, -1238.76)" xlink:href="#e"/><linearGradient id="v" x1="-273.1" y1="2731.48" x2="-229.24" y2="2981.64" gradientTransform="matrix(0.75, -0.67, 0.67, 0.75, -1171.61, -1238.76)" xlink:href="#d"/><linearGradient id="w" x1="-279.39" y1="3031.99" x2="-326.57" y2="2876.4" gradientTransform="matrix(0.75, -0.67, 0.67, 0.75, -1171.61, -1238.76)" xlink:href="#e"/></defs><path class="a" d="M2428.07,2404.69c-56.4,59.37-109.76,97.66-151.92,127.91-495.57,355.58-1082,251.93-1206.6,226.61-184-37.37-539.76-109.62-796.95-412.07C-116.5,1889.56-55.91,1168.66,245.9,692.78c55.21-87,346.83-570.17,939.54-647.65,358.7-46.89,776.84,47.68,1079.64,301.36C2900.68,879,2855.43,1954.77,2428.07,2404.69Z"/><path class="b" d="M1877.51,2699.58a17.77,17.77,0,0,1-11.91-7c-41.83-56.37-346-497.52,58.8-900.77C2308.66,1409,2482.85,1330.36,2506,1105.44c2.71-26.27,38.22-32.57,49.9-8.89,87.31,177,223.35,589.92-226.84,861-496.6,299-455.9,626.74-431.88,719.88a17.84,17.84,0,0,1-19.68,22.18Z"/><path class="b" d="M1939.1,2708a25.69,25.69,0,0,1-22-21.52c-11.86-76.71-41-363.37,170.21-439.38,232.48-83.68,420.17,132.83,591.06-36.63,9-8.92,24.11-1.15,22,11.33-15.22,88.52-83,293.56-384.38,334.82-322.62,44.16-358.92,81.17-352.41,127.08,2,14.15-10.28,26.23-24.45,24.3Z"/><path class="c" d="M2494.77,1334.76a331.48,331.48,0,0,1-15.43,47.88,484,484,0,0,1-20.92,45.48c-15.26,29.73-33.58,57.85-53.63,84.64-40.38,53.45-89.23,100.4-143.08,140.21a916.28,916.28,0,0,1-83.94,54.42,762.68,762.68,0,0,0-79.68,53.38,839.6,839.6,0,0,0-138,133.29c-81.31,98.88-139,218.22-158,345.27a671.8,671.8,0,0,0-1.08,192.19c8.63,64,26.87,126.65,50.92,187.07a6.29,6.29,0,0,1-11.52,5c-28.13-59.7-49.14-123.17-60.77-188.72a654.53,654.53,0,0,1-5.66-199.44c8.08-66.49,26.83-131.61,53.84-192.91s62.87-118.62,104.67-170.88,90.26-99.15,143.27-140.05a798,798,0,0,1,83.31-56.24c28.37-16.29,55.31-32.83,81.4-51.66,52.08-37.2,100.2-80.14,141.6-129.15a674,674,0,0,0,57.28-77.38c17-27.16,32.89-55.81,44.32-85.44l.15-.38a5.74,5.74,0,0,1,10.94,3.39Z"/><path class="c" d="M1925.71,2655.94c1-2.78.68-5.36.59-8l-.25-7.9-.18-15.81q0-15.8.7-31.59c.94-21,2.73-42.07,5.55-63,5.74-41.77,15.21-83.42,32.07-122.64,16.67-39,41.92-76.18,78.56-100.51a173.4,173.4,0,0,1,60.18-24.76c21.33-4.49,43.24-5.16,64.67-3.27,84,9.74,166.3,25.84,248.83,38.91,41.11,6.13,82.8,11.6,123.16,6.08a183.71,183.71,0,0,0,29.51-6.74,155.19,155.19,0,0,0,27.56-12.31c17.55-10,33-23.72,46.77-38.92l0-.05a5.12,5.12,0,0,1,7.66,6.8c-14,16.09-29.94,31-48.61,42.16a166.66,166.66,0,0,1-29.46,13.92,194.68,194.68,0,0,1-31.54,7.93c-43,6.3-85.59.94-127.18-4.76-41.7-5.93-82.87-13.66-124.2-20.35s-82.87-13.19-123.89-18c-20.25-2-40.73-1.48-60.47,2.5a159.09,159.09,0,0,0-55.59,22.29c-34.1,21.71-58.84,56.26-75.64,93.66-17,37.59-27.09,78.28-33.5,119.34-3.15,20.57-5.31,41.32-6.61,62.12q-1,15.6-1.28,31.24l-.1,15.63.1,7.81c.07,2.58-.05,5.24,1.22,7.69a4.75,4.75,0,1,1-8.7.61Z"/><path class="d" d="M1486.91,35.21c-126.53-1-254.15,19.06-367.07,65.91C857,210.19,633.91,498.77,721.21,793.53c28.35,95.76,13.46,201.4,108.85,243,51.61,22.52,192.17,35.92,245.61,18.17,142-47.16,235.41-176.23,158.15-319.36-24.73-45.84-56.75-87.71-78.12-135.21s-31.1-103.89-9.32-151.21c42.76-92.88,184.78-122.41,276.88-119.62C1532,332.6,1630.46,386.37,1689,478.6c72.91,115,91.38,254.78,80.71,388.22-11.42,142.78-71.62,251.82-161.85,361.35-77.67,94.3-163.21,184.82-214.84,295.56-47.4,101.65-62.89,214.29-65,325.51-.41,21.55-107.61,224.69-107.15,286.75.06,8.77,121.58,37.81,130.35,37.91l223,2.49a17.79,17.79,0,0,0,18-17.54c3.39-301.93,96.26-589.79,331.36-792.57,85.54-73.78,177.67-133.87,244.19-227,94.8-132.74,141.58-263.37,128.08-427.2-12.33-149.62-61.6-299.32-159.13-415.41C2031.87,171.9,1878.45,94,1719,60.36A1176.25,1176.25,0,0,0,1486.91,35.21Z"/><path class="d" d="M1720.25,2514.87c0,138.84-77,261.67-215.8,261.67-30,0-132,.28-158.68-9.35-96.79-35-97.14-109.33-97.14-218.18,0-138.84,46.89-275.39,185.73-275.39S1720.25,2376,1720.25,2514.87Z"/><path class="e" d="M1235.52,0C1109-1,981.36,19.1,868.44,66,605.59,175,382.51,463.6,469.81,758.36c28.36,95.76,93.93,216.29,189.32,257.9,51.61,22.52,111.7,21,165.14,3.28,142.05-47.16,235.41-176.23,158.16-319.36-24.74-45.84-56.76-87.71-78.12-135.21S873.21,461.08,895,413.76c42.75-92.88,184.77-122.4,276.87-119.62,108.71,3.29,207.21,57.06,265.71,149.29,72.9,115,91.37,254.78,80.7,388.22-11.41,142.78-71.62,251.82-161.84,361.35-77.68,94.3-163.22,184.82-214.85,295.56-47.39,101.65-62.88,214.29-65,325.51-.42,21.55,6.84,246.65,7.3,308.71a16.06,16.06,0,0,0,15.89,15.95l223,2.49a17.78,17.78,0,0,0,18-17.53c3.4-301.94,96.27-589.8,331.36-792.58,85.55-73.78,177.67-133.87,244.19-227,94.81-132.74,141.58-263.37,128.08-427.2-12.33-149.62-61.59-299.32-159.12-415.41C1780.48,136.73,1627.06,58.81,1467.6,25.19A1176.14,1176.14,0,0,0,1235.52,0Z"/><circle class="e" cx="1248.63" cy="2513.84" r="251.4"/><path class="f" d="M684.19,733a3.22,3.22,0,0,1-3.14-2.53c-17.62-79.55-20.21-204.12,67.52-345.83,85.62-138.31,205.72-230.86,357-275.07,161.68-47.26,353.65-37.14,570.57,30.07a3.22,3.22,0,1,1-1.91,6.16c-215.69-66.83-406.41-76.94-566.85-30C957.68,159.53,838.81,251.14,754.05,388.06c-86.58,139.86-84.06,262.65-66.71,341a3.22,3.22,0,0,1-2.45,3.85A3.34,3.34,0,0,1,684.19,733Z"/><path class="f" d="M737.07,861a3.2,3.2,0,0,1-2.6-1.33c-.77-1-18.88-26.07-35.73-70.16a3.23,3.23,0,0,1,6-2.3c16.54,43.28,34.72,68.41,34.91,68.66a3.24,3.24,0,0,1-2.61,5.13Z"/><path class="f" d="M1463.92,2354.43a3.13,3.13,0,0,1-1.45-.35,181.13,181.13,0,0,0-82.67-19.69,3.23,3.23,0,1,1,0-6.45,187.38,187.38,0,0,1,85.58,20.39,3.22,3.22,0,0,1-1.46,6.1Z"/><path class="f" d="M1275.69,2675a3.22,3.22,0,0,1-1.8-.55,189.48,189.48,0,0,1,16.35-324,3.23,3.23,0,1,1,3.06,5.68,183,183,0,0,0-15.8,313,3.23,3.23,0,0,1-1.81,5.9Z"/><g class="g"><path class="h" d="M543.53,473.86a7.61,7.61,0,0,1-10.7,1.12c-6.34-5.13-13-10.07-19.8-14.67a7.62,7.62,0,0,1-2.11-10.45l.08-.12a7.61,7.61,0,0,1,10.57-2c7.15,4.84,14.16,10,20.84,15.45a7.61,7.61,0,0,1,1.59,10A7.11,7.11,0,0,1,543.53,473.86Zm-65.11-33.68c-7.35-3.63-14.93-7-22.53-10a7.61,7.61,0,1,1,5.55-14.17c8,3.14,16,6.66,23.72,10.48a7.6,7.6,0,0,1,3.45,10.19,6.18,6.18,0,0,1-.45.79A7.62,7.62,0,0,1,478.42,440.18Zm-60.71-21.94c-8-1.9-16.1-3.47-24.19-4.68a7.61,7.61,0,0,1,2.25-15.05c8.52,1.27,17.09,2.93,25.47,4.93a7.61,7.61,0,0,1-3.53,14.8Zm-64.1-7.8c-8.19-.08-16.48.21-24.64.84a7.61,7.61,0,0,1-1.17-15.17c8.59-.66,17.32-1,25.94-.89a7.61,7.61,0,0,1-.13,15.22Zm-64.24,6.66c-8,1.75-16,3.86-23.84,6.28A7.6,7.6,0,1,1,261,408.85c8.24-2.55,16.68-4.77,25.08-6.61a7.61,7.61,0,1,1,3.25,14.86Zm-61.16,20.72c-7.41,3.47-14.76,7.31-21.85,11.4A7.61,7.61,0,1,1,198.75,436c7.46-4.3,15.2-8.33,23-12a7.6,7.6,0,0,1,9.6,11A7.5,7.5,0,0,1,228.21,437.82ZM56.74,662.35a7.62,7.62,0,0,1-6.39-8.66c1.29-8.51,3-17.08,5-25.47a7.61,7.61,0,1,1,14.79,3.56c-1.91,8-3.5,16.1-4.72,24.18a7.51,7.51,0,0,1-1.14,3A7.61,7.61,0,0,1,56.74,662.35ZM173.19,471.56c-6.45,5-12.76,10.4-18.75,16a7.61,7.61,0,1,1-10.35-11.15c6.31-5.86,12.95-11.52,19.74-16.82a7.61,7.61,0,0,1,11.06,10.15A7.82,7.82,0,0,1,173.19,471.56ZM72.31,597.9A7.61,7.61,0,0,1,68,588c3.16-8,6.7-16,10.53-23.71a7.61,7.61,0,1,1,13.64,6.76c-3.64,7.34-7,14.92-10,22.53a7,7,0,0,1-.71,1.36A7.6,7.6,0,0,1,72.31,597.9Zm54.79-81.16c-5.15,6.34-10.1,13-14.71,19.76a7.61,7.61,0,0,1-12.67-8.42l.09-.13c4.85-7.14,10.06-14.14,15.48-20.81a7.61,7.61,0,0,1,12.29,8.94C127.44,516.3,127.27,516.52,127.1,516.74Z"/><path class="h" d="M61.1,712.3a7.49,7.49,0,0,0,1.22-4.38c-.12-3.92-.16-7.91-.13-11.85A7.61,7.61,0,1,0,47,695.93c0,4.15,0,8.34.14,12.47a7.61,7.61,0,0,0,14,3.9Z"/></g><g class="g"><path class="h" d="M158.33,922.88a7.61,7.61,0,0,0-1.28-9.78c-2.91-2.63-5.81-5.37-8.62-8.13a7.61,7.61,0,0,0-10.67,10.85c3,2.91,6,5.79,9.09,8.56a7.6,7.6,0,0,0,10.74-.54A6.65,6.65,0,0,0,158.33,922.88Z"/><path class="h" d="M597.05,877.31a7.61,7.61,0,1,1-12.34-8.91c4.69-6.48,9.16-13.27,13.37-20.24a7.61,7.61,0,1,1,13,7.86q-2.73,4.53-5.59,8.93C602.79,869.14,600,873.3,597.05,877.31Zm23-54.19a7.62,7.62,0,0,1-4-10c3.19-7.41,6.11-15,8.66-22.66a7.61,7.61,0,0,1,14.43,4.83c-2.69,8-5.76,16.06-9.12,23.85a6.88,6.88,0,0,1-.61,1.14A7.6,7.6,0,0,1,620.06,823.12Zm-49.52,86.06c-5.85,6.12-12,12.08-18.39,17.7a7.61,7.61,0,1,1-10.08-11.4c6-5.34,11.91-11,17.46-16.8a7.61,7.61,0,1,1,11,10.5Zm70.19-147.95a7.6,7.6,0,0,1-6.07-8.88c1.49-7.92,2.65-16,3.46-24a7.61,7.61,0,0,1,15.14,1.54c-.86,8.43-2.08,16.93-3.65,25.27a7.58,7.58,0,0,1-8.88,6.07ZM519.29,952.12c-7,4.68-14.39,9.13-21.83,13.22A7.61,7.61,0,0,1,490.14,952c7.07-3.88,14-8.1,20.73-12.55a7.61,7.61,0,1,1,8.42,12.67Zm-59.42,30.66c-7.91,3-16.05,5.77-24.18,8.13a7.61,7.61,0,1,1-4.25-14.61c7.73-2.24,15.46-4.85,23-7.73a7.61,7.61,0,0,1,5.45,14.21Zm-64.69,17c-8.39,1.25-16.94,2.15-25.38,2.68a7.61,7.61,0,1,1-1-15.18c8-.51,16.14-1.37,24.12-2.55a7.61,7.61,0,1,1,2.22,15Zm-66.85,2.47c-8.47-.63-17-1.62-25.37-3a7.61,7.61,0,0,1,2.4-15c7.95,1.27,16.05,2.21,24.09,2.8a7.61,7.61,0,0,1,7,8.15,7.45,7.45,0,0,1-1.2,3.58A7.6,7.6,0,0,1,328.33,1002.22Zm-65.8-12.3c-8.1-2.47-16.19-5.31-24.07-8.46a7.61,7.61,0,0,1,5.64-14.13c7.49,3,15.18,5.69,22.87,8a7.61,7.61,0,0,1,5.06,9.49,8,8,0,0,1-.9,1.94A7.61,7.61,0,0,1,262.53,989.92Zm-61.42-26.41c-5.43-3.08-10.83-6.35-16.05-9.75q-2.84-1.85-5.62-3.73a7.52,7.52,0,0,1-2-10.57,7.61,7.61,0,0,1,10.57-2c1.76,1.2,3.54,2.39,5.34,3.55,5,3.23,10.09,6.35,15.25,9.27a7.6,7.6,0,0,1,2.87,10.37l-.24.4A7.6,7.6,0,0,1,201.11,963.51Z"/><path class="h" d="M653.37,692.66a7.6,7.6,0,0,0,1.22-4.42c-.15-4.11-.39-8.3-.71-12.45A7.61,7.61,0,1,0,638.71,677c.31,3.94.53,7.92.68,11.83a7.61,7.61,0,0,0,14,3.86Z"/></g><path class="h" d="M557.94,603.75a3.55,3.55,0,0,0-3.3-2.47l-43.27-.95a188.7,188.7,0,0,0-39.46-46.62l6.17-42.8a3.55,3.55,0,0,0-1.89-3.67L430,483.48a3.57,3.57,0,0,0-4.09.6L394.7,514a188.34,188.34,0,0,0-60.87-5L307.91,474.3a3.54,3.54,0,0,0-3.93-1.25l-49.43,15.84a3.54,3.54,0,0,0-2.47,3.3l-1,43.27a188.34,188.34,0,0,0-46.62,39.46l-42.81-6.17a3.53,3.53,0,0,0-3.66,1.89L134.28,616.8a3.55,3.55,0,0,0,.59,4.08l29.91,31.25a188.34,188.34,0,0,0-5,60.87L125.1,738.92a3.56,3.56,0,0,0-1.26,3.93l15.84,49.43a3.56,3.56,0,0,0,3.31,2.47l43.27,1a188.13,188.13,0,0,0,39.46,46.62l-6.18,42.81a3.58,3.58,0,0,0,1.9,3.67l46.15,23.75a3.57,3.57,0,0,0,4.09-.59l31.24-29.9a188.66,188.66,0,0,0,60.87,5l25.92,34.66a3.56,3.56,0,0,0,3.94,1.26l49.43-15.84a3.56,3.56,0,0,0,2.47-3.31l.95-43.27a188.49,188.49,0,0,0,46.62-39.46l42.8,6.18a3.57,3.57,0,0,0,3.67-1.9l23.76-46.15a3.57,3.57,0,0,0-.6-4.09l-29.9-31.24a188.39,188.39,0,0,0,5-60.87l34.66-25.92a3.55,3.55,0,0,0,1.25-3.93Z"/><path class="i" d="M388,732.52a52.11,52.11,0,1,1,4.64-6.1A51.65,51.65,0,0,1,388,732.52Zm-79.06-32a40,40,0,1,0,9.92-29,40.24,40.24,0,0,0-3.59,4.72A39.7,39.7,0,0,0,308.89,700.53Z"/><path class="i" d="M455.2,768.38c2.38-3.66,4.59-7.47,6.62-11.4h0c.64-1.24,1.25-2.49,1.85-3.75A128.52,128.52,0,0,0,471,734c0-.09,0-.18.08-.27l.21-.77c.14-.49.28-1,.41-1.48a3.05,3.05,0,0,0-1.27-3.35,3,3,0,0,0-.87-.38,3,3,0,0,0-3.73,2.15,122.32,122.32,0,0,1-174,77,124.28,124.28,0,0,1-10.88-6.31,122.22,122.22,0,1,1,170.61-166.9,2.88,2.88,0,0,0,.93.94,3,3,0,0,0,4.24-4.15,128.3,128.3,0,0,0-50.26-46.32c-62.9-32.38-140.43-7.52-172.79,55.36A128.35,128.35,0,0,0,277.6,805.72q5.5,3.57,11.42,6.62a128.31,128.31,0,0,0,166.18-44Z"/><g class="g"><path class="h" d="M853.58,364.76a4.7,4.7,0,0,0-.38-5.62c-2.59-3-5.32-6-8.1-8.88a4.7,4.7,0,0,0-6.75,6.53c2.65,2.73,5.24,5.58,7.72,8.47a4.69,4.69,0,0,0,7.51-.5Z"/><path class="h" d="M827.34,340a4.7,4.7,0,0,1-6.6.72,196.47,196.47,0,0,0-16-11.57c-1.16-.75-2.33-1.5-3.51-2.23a4.7,4.7,0,0,1-1.51-6.47,4.86,4.86,0,0,1,6.47-1.51c1.23.76,2.46,1.54,3.67,2.33a203,203,0,0,1,16.74,12.13,4.71,4.71,0,0,1,1,6.21A4,4,0,0,1,827.34,340Zm-47.09-24.4A191.74,191.74,0,0,0,758,306.92,4.7,4.7,0,0,1,760.9,298a203.17,203.17,0,0,1,23.3,9.09,4.7,4.7,0,0,1,2.29,6.24,4.24,4.24,0,0,1-.33.59A4.7,4.7,0,0,1,780.25,315.59Zm-45.36-14.53a190,190,0,0,0-23.68-2.94,4.7,4.7,0,0,1,.58-9.39,205,205,0,0,1,24.84,3.09,4.7,4.7,0,0,1-1.74,9.24Zm-47.54-2.94a193.64,193.64,0,0,0-23.68,2.94,4.7,4.7,0,0,1-1.73-9.24,204.37,204.37,0,0,1,24.83-3.08,4.7,4.7,0,0,1,.58,9.38Zm-46.82,8.76a193.3,193.3,0,0,0-22.25,8.6,4.7,4.7,0,0,1-3.92-8.55,205.69,205.69,0,0,1,23.32-9,4.7,4.7,0,0,1,2.85,9Zm-43.28,19.85a193.41,193.41,0,0,0-19.46,13.76,4.7,4.7,0,1,1-5.89-7.32,202,202,0,0,1,20.41-14.43,4.7,4.7,0,0,1,6.41,6.56A4.57,4.57,0,0,1,597.25,326.73Zm-37.09,29.83a193.18,193.18,0,0,0-15.5,18.13,4.7,4.7,0,0,1-7.51-5.66,203.7,203.7,0,0,1,16.26-19,4.7,4.7,0,0,1,7.32,5.83A4.23,4.23,0,0,1,560.16,356.56Zm-45.45,61.9a4.71,4.71,0,0,1-2.5-6.16,202.34,202.34,0,0,1,9.54-19.53c.52-1,1.07-1.92,1.61-2.87a4.7,4.7,0,0,1,8.14,4.71c-.52.89-1,1.78-1.53,2.71A196.77,196.77,0,0,0,520.86,416a4.19,4.19,0,0,1-.38.73A4.7,4.7,0,0,1,514.71,418.46Z"/></g><g class="g"><path class="h" d="M867.76,604.27a204.32,204.32,0,0,1-14.88,19.59,4.7,4.7,0,1,1-7.12-6.13A195.69,195.69,0,0,0,860,599.05a4.7,4.7,0,0,1,7.85,5.17Zm6.11-19.18a4.7,4.7,0,0,1-2.07-6.31,196.65,196.65,0,0,0,9.35-21.55,4.7,4.7,0,0,1,8.83,3.22A205.87,205.87,0,0,1,880.19,583c-.08.16-.17.3-.26.45A4.7,4.7,0,0,1,873.87,585.09ZM835.72,641.5a205.06,205.06,0,0,1-19.18,15.42,4.7,4.7,0,1,1-5.43-7.67,195.08,195.08,0,0,0,18.29-14.7,4.7,4.7,0,0,1,7.1,6A4.19,4.19,0,0,1,835.72,641.5Zm55.61-101.13a4.71,4.71,0,0,1-3.52-5.64,192.74,192.74,0,0,0,3.86-23.15,4.7,4.7,0,1,1,9.35,1A202,202,0,0,1,897,536.84a4.6,4.6,0,0,1-.63,1.51A4.73,4.73,0,0,1,891.33,540.37ZM795.64,669.88a204.34,204.34,0,0,1-22.32,10.35,4.7,4.7,0,0,1-3.43-8.76,191,191,0,0,0,21.29-9.87,4.7,4.7,0,1,1,4.46,8.28Zm-45.72,17.93a203.51,203.51,0,0,1-24.15,4.71,4.7,4.7,0,0,1-1.24-9.31,195.29,195.29,0,0,0,23-4.5,4.71,4.71,0,0,1,5.12,7.12A4.65,4.65,0,0,1,749.92,687.81Zm-48.7,6.48a203.72,203.72,0,0,1-24.59-1.23,4.7,4.7,0,1,1,1-9.34,193,193,0,0,0,23.44,1.17,4.69,4.69,0,0,1,4.75,4.64,4.56,4.56,0,0,1-.75,2.61A4.7,4.7,0,0,1,701.22,694.29Z"/><path class="h" d="M901.33,490.39a4.69,4.69,0,0,0,.75-2.65c-.07-4-.27-8.06-.57-12a4.7,4.7,0,1,0-9.37.73c.29,3.76.47,7.61.55,11.45a4.7,4.7,0,0,0,8.64,2.47Z"/></g><path class="h" d="M837.7,427.51a2.39,2.39,0,0,0-2.21-1.66l-29-.63A126.31,126.31,0,0,0,780.13,394l4.13-28.64a2.38,2.38,0,0,0-1.26-2.46L752.11,347a2.37,2.37,0,0,0-2.73.39l-20.91,20a126.12,126.12,0,0,0-40.73-3.35l-17.35-23.19a2.36,2.36,0,0,0-2.63-.84l-33.08,10.59a2.39,2.39,0,0,0-1.65,2.22l-.64,28.95a126,126,0,0,0-31.19,26.41l-28.64-4.14a2.4,2.4,0,0,0-2.46,1.27l-15.9,30.89a2.38,2.38,0,0,0,.4,2.73l20,20.91a126.13,126.13,0,0,0-3.36,40.73L548.06,518a2.39,2.39,0,0,0-.84,2.63l10.6,33.08a2.39,2.39,0,0,0,2.21,1.66l29,.63a126.27,126.27,0,0,0,26.4,31.2l-4.13,28.64a2.38,2.38,0,0,0,1.27,2.46l30.88,15.89a2.37,2.37,0,0,0,2.74-.4l20.9-20a126.19,126.19,0,0,0,40.74,3.36l17.34,23.19a2.36,2.36,0,0,0,2.63.84l33.08-10.59a2.37,2.37,0,0,0,1.65-2.22l.64-28.95A125.87,125.87,0,0,0,794.32,573L823,577.09a2.39,2.39,0,0,0,2.45-1.27l15.9-30.89a2.38,2.38,0,0,0-.4-2.73l-20-20.91a126.13,126.13,0,0,0,3.36-40.73l23.19-17.34a2.39,2.39,0,0,0,.84-2.63Z"/><path class="i" d="M724.42,514.09a35.41,35.41,0,1,1,3.19-4.2A36.58,36.58,0,0,1,724.42,514.09Zm-43.95-3.9a26.14,26.14,0,0,0,36.9-2.31h0a26.15,26.15,0,1,0-39.22-34.59,26.78,26.78,0,0,0-2.32,3.06A26.17,26.17,0,0,0,680.47,510.19Z"/><path class="i" d="M771.23,539q2.43-3.74,4.51-7.78a89.28,89.28,0,0,0,6.6-16.79l.21-.78a4.7,4.7,0,0,0-2-5.16,4.56,4.56,0,0,0-1.35-.6,4.7,4.7,0,0,0-5.75,3.31A79.34,79.34,0,0,1,767.39,527h0c-.14.28-.29.55-.43.82a78.58,78.58,0,0,1-45.1,38.1l-.16.06-.52.17a78.63,78.63,0,0,1-60.34-5,80.4,80.4,0,0,1-7.05-4.09A79.12,79.12,0,1,1,764.24,449a4.54,4.54,0,0,0,1.43,1.46,4.7,4.7,0,0,0,6.55-6.42,88.52,88.52,0,1,0-1,95Z"/><polygon class="j" points="1805.23 858.02 1668.59 997.8 1832.5 954.02 1805.23 858.02"/><path class="k" d="M2618.3,915.88l-776.43,37.68a35,35,0,0,1-36.64-34.9V599.23A64.26,64.26,0,0,1,1867.51,535l699.77-21.66a94.36,94.36,0,0,1,94.35,94.36V870.4A45.54,45.54,0,0,1,2618.3,915.88Z"/><path class="l" d="M1865.09,940.73a48,48,0,0,1-47.94-48V604.83c0-33.93,27.21-61.33,61.94-62.38L2556.62,522c51.35,0,93.09,40.75,93.09,90.84V861c0,23.88-19.14,43.49-43.56,44.65l-738.72,35C1866.65,940.71,1865.87,940.73,1865.09,940.73Zm691.58-415.37-677.48,20.46c-32.9,1-58.67,26.91-58.67,59V892.72a44.63,44.63,0,0,0,46.75,44.59l738.72-35,.08,1.68-.08-1.68c22.63-1.07,40.35-19.21,40.35-41.29V612.83C2646.34,564.6,2606.11,525.36,2556.67,525.36Z"/><path class="m" d="M2554.4,583.6l-620.84,23.23c-6.1.23-10.9,4.27-10.7,9l.23,5.45c.21,4.69,5.23,8.29,11.26,8.07l620.88-22.67c6.1-.23,10.91-4.27,10.7-9l-.25-6C2565.48,587,2560.44,583.37,2554.4,583.6Z"/><path class="m" d="M2498.84,740.77,1878,763.89c-6.1.23-10.89,4.41-10.68,9.31l.24,5.65c.21,4.85,5.24,8.59,11.28,8.37l620.87-22.53c6.11-.22,10.91-4.4,10.7-9.31l-.27-6.24C2509.92,744.29,2504.88,740.55,2498.84,740.77Z"/><path class="m" d="M2571.38,806.52l-692.12,26.14c-6.8.25-12.16,4.49-12,9.45l.25,5.7c.21,4.9,5.8,8.66,12.53,8.41l692.14-25.54c6.8-.26,12.17-4.5,12-9.45l-.27-6.3C2583.71,810,2578.11,806.27,2571.38,806.52Z"/><path class="m" d="M2214,676.26l-338.39,9.87c-3.32.09-5.81,4.66-5.54,10.16l.32,6.34c.27,5.45,3.14,9.77,6.42,9.68l338.43-9.21c3.32-.09,5.81-4.65,5.54-10.16l-.35-7C2220.17,680.49,2217.3,676.17,2214,676.26Z"/><path class="m" d="M2586.87,664.57,2267,673.74c-3.14.09-5.47,4.64-5.2,10.15l.32,6.34c.27,5.45,3,9.77,6.1,9.69l319.88-8.51c3.14-.09,5.48-4.65,5.21-10.15l-.35-7C2592.71,668.81,2590,664.48,2586.87,664.57Z"/><path class="n" d="M626.3,2677.7s-6.4,36.23-9.54,72.1a24.72,24.72,0,0,0,23.64,26.77c47.76,2,149.92,5.86,186.58,4.22a8,8,0,0,0,7.08-11h0a18,18,0,0,0-9.21-9.7L656.1,2682.52Z"/><path class="o" d="M621.06,2656.41l5.14,43.34s29.56,13.76,49.75-1.73l-12.24-48.3Z"/><path class="p" d="M624.92,1841.66C622.7,1853,613,2406.42,672.16,2654.43a8.44,8.44,0,0,1-4.94,9.8A146.84,146.84,0,0,1,619,2674a14.5,14.5,0,0,1-14.38-10.41c-16.91-57.54-97.94-345.85-108.52-621.26-11.81-307.75,0-10.48,0-10.48l6.93-190.23Z"/><path class="q" d="M432.17,2696.6s-10.18,18.29-20.05,66.9a15.08,15.08,0,0,0,13.27,18.05c15.77,1.55,40.05,3.55,59.5,3.41a15,15,0,0,0,14.88-16.77c-2.16-17.74-8.87-46.84-29.6-69.53Z"/><path class="r" d="M423.23,2640.86l12,65.54s11.88,8.84,35.38,2.43l-5.73-70.51Z"/><path class="s" d="M390.77,1858.65c-48.38,292,10.5,721.7,30.35,805.8a13.12,13.12,0,0,0,10.59,10c8.87,1.47,23.46,2.67,37.85-1.51a12,12,0,0,0,8.64-11.07c2.66-68-2.13-485.42,42.95-650.38a37.48,37.48,0,0,1,14.45-20.68l87.51-62.2,6.7-100.56Z"/><path class="t" d="M699.07,1305.36c-145-2.39-305,38.07-305,38.07-43.22,252.2-7.56,543.08-7.56,543.08,112.25,29.44,238.88-18,238.88-18,18.66-105.41,105.71-402.07,105.71-402.07,70.84-8.79,129.2-29.23,177.26-56.25-36.66-42.5-53.94-96.57-61.44-128.53C795.67,1297.59,743.79,1306.1,699.07,1305.36Z"/><path class="u" d="M1127.37,1091.79c-14.25-17.2-32.27-9.07-32.27-9.07-21.34,90.14-133.22,163.22-248.16,198.94,7.5,32,24.78,86,61.44,128.53C1099.14,1302.93,1127.37,1091.79,1127.37,1091.79Z"/><path class="v" d="M1123.91,1096.16c1.49,4.74-15.77,12-25.93-7.42-.36-9.29-6-49.08-.45-56.64,29.55-40.3,86.86-90.81,86.86-90.81,9.68,9.56,1.7,18.94,1.7,18.94l-27.8,29c5.82,10.51,12.91,19.38,16.23,32.09a39,39,0,0,1-3.88,28.67c-4.88,8.79-11.54,20.22-17.83,29.16C1140.9,1096,1123.91,1096.16,1123.91,1096.16Z"/><path class="w" d="M1146.13,1008l-25.33,21.48-8,21.38,22.59,25.06s7.59-42.43,13.23-51.61S1151.39,1010.67,1146.13,1008Z"/><path class="x" d="M449.7,1483.83l-55.61-140.4s-135.44,92-157.71,208.7c25.59,1.89,72.16,8.54,117.74,31.56C364.13,1528.59,449.7,1483.83,449.7,1483.83Z"/><path class="y" d="M568.06,1616S416,1701.88,364.69,1628.5c-10.65-15.23-13.2-30.38-10.57-44.81-45.58-23-92.15-29.67-117.74-31.56-6.72,35.17-3.17,72.58,17.5,110.39,89.88,164.41,334.3-9.08,334.3-9.08Z"/><path class="z" d="M549.79,1724.66l83-289.81a8.45,8.45,0,0,1,7.14-6.09c15-1.75,58.61-6.67,108.91-10.93,60.6-5.12,131-9.28,173-5.74a8.47,8.47,0,0,1,6.93,12.2c-23.91,48.37-122.26,245.16-171.52,309.62a8.5,8.5,0,0,1-6.84,3.36l-192.55-1.79A8.48,8.48,0,0,1,549.79,1724.66Z"/><path class="aa" d="M757.44,1392.7l60.17-10a4.32,4.32,0,0,1,4.81,5.61l-6,18a4.31,4.31,0,0,1-3.52,2.93L755,1417a4.31,4.31,0,0,1-4.77-5.26L754,1396A4.31,4.31,0,0,1,757.44,1392.7Z"/><path class="ab" d="M712.39,1443.64l5-25.82a6,6,0,0,1,5.25-4.81l121.53-12.33a6,6,0,0,1,6.41,7.33l-7.73,32.17a6,6,0,0,1-5.5,4.57l-118.76,6A6,6,0,0,1,712.39,1443.64Z"/><path class="ac" d="M569.84,1654.65s-11.56-47.54-6.9-64.4,13.7-38.55,43.81-33.73,65.64,17.5,65.64,17.5-1.79,22-24.68,14.88l14.2,11s-2,17.59-21.37,8.19l13.2,14.57s-8.3,14.44-22.52,5.18S610.18,1660.37,569.84,1654.65Z"/><path class="ad" d="M552.2,1187.65l-46.13,133.42a4.8,4.8,0,0,0,2.19,5.79c12.57,7,57.88,27.05,112.48-7.57a22.62,22.62,0,0,0,10.43-16.17l14.94-115.47Z"/><path class="ae" d="M652.59,1064.1s50.66,95.36,44.17,133.88-69.29,35.76-124.11,4.47l-38.32-103Z"/><path class="af" d="M575.07,1151.88a3.92,3.92,0,0,0,1.71-5.75c-4-6.2-11.66-18.85-14.09-29.92,0,0-9.11-5.84,23.18-13.57s80.44-19.72,90.56-47.2c9.87-26.8-16.06-94.18-57.42-40.49a3.93,3.93,0,0,1-6.23,0c-6.78-8.82-24.61-27.14-49.36-16-23.16,10.4-25.77,27.37-25.45,35.92a3.9,3.9,0,0,1-4.63,4c-11.71-2.23-39.81-4.15-52.93,24.68-10.8,23.74-3.78,37.18,2.62,43.76a3.91,3.91,0,0,1-1.68,6.5c-7.7,2.36-17.63,8.89-16.64,26.92,1.38,24.92,29.24,22.73,37.18,21.59a4,4,0,0,1,3.49,1.23c6.8,7.53,37.46,39.5,70.63,43.36a4,4,0,0,0,4.16-5.24l-14.36-41.74A4,4,0,0,1,568,1155Z"/><path class="ag" d="M580.84,1157.81s-36.07-24.75-38.71-3.91,32.49,30.19,49.88,22.42Z"/></svg>